<?xml version="1.0" encoding="UTF-8"?>
<svg width="137px" height="48px" viewBox="0 0 137 48" version="1.1" xmlns="http://www.w3.org/2000/svg" xmlns:xlink="http://www.w3.org/1999/xlink">
    <!-- Generator: sketchtool 58 (101010) - https://sketch.com -->
    <title>DE92DA80-6155-4356-97BC-4B638A20B27B</title>
    <desc>Created with sketchtool.</desc>
    <g id="Final-Landing-page-and-services-" stroke="none" stroke-width="1" fill="none" fill-rule="evenodd">
        <g id="Service-page-" transform="translate(-35.000000, -24.000000)" fill-rule="nonzero">
            <g id="minty_final-logo" transform="translate(35.000000, 24.000000)">
                <g id="Group" transform="translate(0.000000, 3.465000)" fill="#8BC53F">
                    <path d="M33.6797993,33.6797993 L33.6797993,20.5127996 C33.6797993,19.9583996 33.6797993,19.3346996 33.6104993,18.7109996 C33.5411993,18.0872996 33.4718993,17.6021996 33.2639993,17.1170996 C33.0560993,16.6319996 32.7788993,16.2854996 32.3630993,16.0082997 C31.9472993,15.7310997 31.3235993,15.5924997 30.5612993,15.5924997 C29.7989993,15.5924997 29.1752994,15.7310997 28.6901994,16.0082997 C28.2050994,16.2854996 27.7892994,16.6319996 27.5120994,17.0477996 C27.2348994,17.4635996 27.0269994,18.0179996 26.8883994,18.5723996 C26.7497994,19.1960996 26.6804994,19.7504996 26.6804994,20.3741996 L26.6804994,33.6797993 L17.1170996,33.6797993 L17.1170996,20.5127996 C17.1170996,19.9583996 17.1170996,19.3346996 17.0477996,18.7109996 C16.9784996,18.0872996 16.9091996,17.6021996 16.7012996,17.1170996 C16.4933996,16.6319996 16.2161996,16.2854996 15.8003997,16.0082997 C15.3845997,15.7310997 14.7608997,15.5924997 13.9985997,15.5924997 C13.2362997,15.5924997 12.6125997,15.7310997 12.1274997,16.0082997 C11.6423997,16.2854996 11.2265998,16.6319996 10.9493998,17.0477996 C10.6721998,17.4635996 10.4642998,18.0179996 10.3256998,18.5723996 C10.1870998,19.1960996 10.1177998,19.7504996 10.1177998,20.3741996 L10.1177998,33.6797993 L0.485099989,33.6797993 L0.485099989,8.45459982 L10.1177998,8.45459982 L10.1177998,11.1572998 C11.2265998,9.84059979 12.4739997,9.0089998 13.7213997,8.52389981 C14.9687997,8.03879982 16.4240996,7.83089983 18.0872996,7.83089983 C20.0276996,7.83089983 21.6215995,8.24669982 23.0075995,9.0782998 C24.3935995,9.90989978 25.3637994,11.0879998 25.9874994,12.6125997 C26.8883994,10.8107998 27.9971994,9.56339979 29.4524994,8.87039981 C30.9077993,8.17739982 32.6402993,7.83089983 34.6499992,7.83089983 C37.2140992,7.83089983 39.2930991,8.59319981 40.8869991,10.1177998 C42.4808991,11.6423997 43.2431991,13.7213997 43.2431991,16.3547996 L43.2431991,33.6104993 L33.6797993,33.6104993 L33.6797993,33.6797993 Z" id="Path"></path>
                    <path d="M79.4870983,33.6797993 L79.4870983,20.5127996 C79.4870983,19.9583996 79.4870983,19.3346996 79.4177983,18.7109996 C79.3484983,18.0872996 79.2791983,17.6021996 79.0712983,17.1170996 C78.8633983,16.6319996 78.5861983,16.2854996 78.1703983,16.0082997 C77.7545983,15.7310997 77.1308983,15.5924997 76.3685983,15.5924997 C74.9132984,15.5924997 73.9430984,16.0775996 73.3886984,17.0477996 C72.8342984,18.0179996 72.5570984,19.1267996 72.5570984,20.4434996 L72.5570984,33.7490993 L62.9243986,33.7490993 L62.9243986,8.45459982 L72.5570984,8.45459982 L72.5570984,11.1572998 C73.6658984,9.84059979 74.8439984,9.0089998 76.0913983,8.52389981 C77.3387983,8.03879982 78.7940983,7.83089983 80.4572982,7.83089983 C83.0213982,7.83089983 85.1003981,8.59319981 86.6942981,10.1177998 C88.2881981,11.6423997 89.0504981,13.7213997 89.0504981,16.3547996 L89.0504981,33.6104993 L79.4870983,33.6104993 L79.4870983,33.6797993 Z" id="Path"></path>
                    <polygon id="Path" points="104.157898 14.4143997 104.157898 33.6797993 94.5251979 33.6797993 94.5251979 14.4143997 91.891798 14.4143997 91.891798 8.52389981 94.5251979 8.52389981 94.5251979 3.88079992 104.157898 0.0692999985 104.157898 8.52389981 106.791298 8.52389981 106.791298 14.4143997"></polygon>
                    <path d="M135.758697,35.0657992 C135.689397,35.9666992 135.481497,36.8675992 135.134997,37.7684992 C134.788497,38.6693992 134.372697,39.5009991 133.748997,40.3325991 C133.194597,41.1641991 132.362997,41.8571991 131.392797,42.4808991 C130.422597,43.1045991 129.244497,43.589699 127.858497,43.936199 C126.472497,44.282699 124.739997,44.490599 122.799597,44.490599 C121.344297,44.490599 119.819697,44.351999 118.364397,44.144099 C116.909097,43.936199 115.523097,43.4510991 114.344998,42.8273991 C113.097598,42.2036991 112.127398,41.3720991 111.295798,40.2632991 C110.464198,39.1544991 109.909798,37.7684992 109.701898,36.0359992 L119.195997,36.0359992 C119.334597,36.3131992 119.473197,36.6596992 119.750397,36.9368992 C120.027597,37.2140992 120.235497,37.5605992 120.581997,37.8377992 C120.859197,38.1149992 121.205697,38.3228992 121.552197,38.4614992 C121.898697,38.6000992 122.245197,38.6693992 122.591697,38.6693992 C123.353997,38.6693992 123.977697,38.4614992 124.462797,38.0456992 C124.947897,37.6298992 125.363697,37.1447992 125.640897,36.5210992 C125.918097,35.8973992 126.125997,35.2736992 126.195297,34.6499992 C126.264597,33.9569993 126.333897,33.4025993 126.333897,32.8481993 L126.333897,30.7691993 C125.225097,32.0858993 124.046997,32.9174993 122.799597,33.4025993 C121.552197,33.8876993 120.096897,34.0955993 118.433697,34.0955993 C115.869597,34.0955993 113.790598,33.3332993 112.196698,31.8086993 C110.602798,30.2840993 109.840498,28.2050994 109.840498,25.5716994 L109.840498,8.45459982 L119.473197,8.45459982 L119.473197,21.6215995 C119.473197,22.1759995 119.473197,22.7996995 119.542497,23.4233995 C119.611797,24.0470995 119.681097,24.5321995 119.888997,25.0172995 C120.096897,25.5023994 120.374097,25.8488994 120.789897,26.1260994 C121.205697,26.4032994 121.829397,26.5418994 122.591697,26.5418994 C124.046997,26.5418994 125.017197,26.0567994 125.571597,25.0865995 C126.125997,24.1163995 126.403197,23.0075995 126.403197,21.6908995 L126.403197,8.45459982 L136.035897,8.45459982 L136.035897,32.4323993 C135.897297,33.2639993 135.827997,34.1648993 135.758697,35.0657992 Z" id="Path"></path>
                </g>
                <g id="Group" transform="translate(46.430999, 0.000000)" fill="#CF9A2C">
                    <path d="M6.65279985,19.1960996 C3.67289992,19.1960996 1.17809997,18.7802996 0.0692999985,18.1565996 L0.0692999985,19.4732996 C0.138599997,19.6118996 0.623699986,19.9583996 2.00969996,20.2355996 C3.25709993,20.5127996 4.92029989,20.6513995 6.65279985,20.6513995 C8.38529982,20.6513995 9.97919978,20.5127996 11.2958998,20.2355996 C12.6818997,19.9583996 13.1669997,19.6118996 13.2362997,19.4732996 L13.2362997,18.1565996 C12.1274997,18.7802996 9.56339979,19.1960996 6.65279985,19.1960996 Z" id="Path"></path>
                    <path d="M6.65279985,16.7012996 C3.67289992,16.7012996 1.17809997,16.2854996 0.0692999985,15.6617997 L0.0692999985,16.9784996 C0.138599997,17.1170996 0.623699986,17.4635996 2.00969996,17.7407996 C3.25709993,18.0179996 4.92029989,18.1565996 6.65279985,18.1565996 C8.38529982,18.1565996 9.97919978,18.0179996 11.2958998,17.7407996 C12.6818997,17.4635996 13.1669997,17.1170996 13.2362997,16.9784996 L13.2362997,15.6617997 C12.1274997,16.2854996 9.56339979,16.7012996 6.65279985,16.7012996 Z" id="Path"></path>
                    <path d="M6.65279985,24.1163995 C3.67289992,24.1163995 1.17809997,23.7005995 0.0692999985,23.0768995 L0.0692999985,24.3935995 C0.138599997,24.5321995 0.623699986,24.8786995 2.00969996,25.1558995 C3.25709993,25.4330994 4.92029989,25.5716994 6.65279985,25.5716994 C8.38529982,25.5716994 9.97919978,25.4330994 11.2958998,25.1558995 C12.6818997,24.8786995 13.1669997,24.5321995 13.2362997,24.3935995 L13.2362997,23.0768995 C12.1274997,23.7005995 9.56339979,24.1163995 6.65279985,24.1163995 Z" id="Path"></path>
                    <path d="M6.65279985,21.6215995 C3.67289992,21.6215995 1.17809997,21.2057995 0.0692999985,20.5820996 L0.0692999985,21.8987995 C0.138599997,22.0373995 0.623699986,22.3838995 2.00969996,22.6610995 C3.25709993,22.9382995 4.92029989,23.0768995 6.65279985,23.0768995 C8.38529982,23.0768995 9.97919978,22.9382995 11.2958998,22.6610995 C12.6818997,22.3838995 13.1669997,22.0373995 13.2362997,21.8987995 L13.2362997,20.5820996 C12.1274997,21.2057995 9.56339979,21.6215995 6.65279985,21.6215995 Z" id="Path"></path>
                    <path d="M6.65279985,29.0366994 C3.67289992,29.0366994 1.17809997,28.6208994 0.0692999985,27.9971994 L0.0692999985,29.3138994 C0.138599997,29.4524994 0.623699986,29.7989993 2.00969996,30.0761993 C3.25709993,30.3533993 4.92029989,30.4919993 6.65279985,30.4919993 C8.38529982,30.4919993 9.97919978,30.3533993 11.2958998,30.0761993 C12.6818997,29.7989993 13.1669997,29.4524994 13.2362997,29.3138994 L13.2362997,27.9971994 C12.1274997,28.6208994 9.56339979,29.0366994 6.65279985,29.0366994 Z" id="Path"></path>
                    <path d="M6.65279985,26.5418994 C3.67289992,26.5418994 1.17809997,26.1260994 0.0692999985,25.5023994 L0.0692999985,26.8190994 C0.138599997,26.9576994 0.623699986,27.3041994 2.00969996,27.5813994 C3.25709993,27.8585994 4.92029989,27.9971994 6.65279985,27.9971994 C8.38529982,27.9971994 9.97919978,27.8585994 11.2958998,27.5813994 C12.6818997,27.3041994 13.1669997,26.9576994 13.2362997,26.8190994 L13.2362997,25.5023994 C12.1274997,26.1260994 9.56339979,26.5418994 6.65279985,26.5418994 Z" id="Path"></path>
                    <path d="M6.65279985,33.9569993 C3.67289992,33.9569993 1.17809997,33.5411993 0.0692999985,32.9174993 L0.0692999985,34.2341993 C0.138599997,34.3727992 0.623699986,34.7192992 2.00969996,34.9964992 C3.25709993,35.2736992 4.92029989,35.4122992 6.65279985,35.4122992 C8.38529982,35.4122992 9.97919978,35.2736992 11.2958998,34.9964992 C12.6818997,34.7192992 13.1669997,34.3727992 13.2362997,34.2341993 L13.2362997,32.9174993 C12.1274997,33.4718993 9.56339979,33.9569993 6.65279985,33.9569993 Z" id="Path"></path>
                    <path d="M6.65279985,31.4621993 C3.67289992,31.4621993 1.17809997,31.0463993 0.0692999985,30.4226993 L0.0692999985,31.7393993 C0.138599997,31.8779993 0.623699986,32.2244993 2.00969996,32.5016993 C3.25709993,32.7788993 4.92029989,32.9174993 6.65279985,32.9174993 C8.38529982,32.9174993 9.97919978,32.7788993 11.2958998,32.5016993 C12.6818997,32.2244993 13.1669997,31.8779993 13.2362997,31.7393993 L13.2362997,30.4226993 C12.1274997,31.0463993 9.56339979,31.4621993 6.65279985,31.4621993 Z" id="Path"></path>
                    <path d="M6.65279985,36.3824992 C3.67289992,36.3824992 1.17809997,35.9666992 0.0692999985,35.3429992 L0.0692999985,36.6596992 C0.138599997,36.7982992 0.623699986,37.1447992 2.00969996,37.4219992 C3.25709993,37.6991992 4.92029989,37.8377992 6.65279985,37.8377992 C8.38529982,37.8377992 9.97919978,37.6991992 11.2958998,37.4219992 C12.6818997,37.1447992 13.1669997,36.7982992 13.2362997,36.6596992 L13.2362997,35.3429992 C12.1274997,35.9666992 9.56339979,36.3824992 6.65279985,36.3824992 Z" id="Path"></path>
                    <path d="M2.00969996,15.3152997 C3.25709993,15.5924997 4.92029989,15.7310997 6.65279985,15.7310997 C8.38529982,15.7310997 9.97919978,15.5924997 11.2958998,15.3152997 C12.6818997,15.0380997 13.1669997,14.6915997 13.2362997,14.5529997 L13.2362997,13.0976997 C13.1669997,12.9590997 12.6818997,12.6125997 11.2958998,12.3353997 C10.0484998,12.0581997 8.38529982,11.9195997 6.65279985,11.9195997 C4.92029989,11.9195997 3.32639993,12.0581997 2.00969996,12.3353997 C0.623699986,12.6125997 0.138599997,12.9590997 0.0692999985,13.0976997 L0.0692999985,14.5529997 C0.138599997,14.6915997 0.623699986,15.0380997 2.00969996,15.3152997 Z" id="Path"></path>
                    <g transform="translate(0.693000, 0.000000)" id="Path">
                        <g transform="translate(0.000000, 1.386000)">
                            <path d="M5.61329988,4.3658999 C3.25709993,3.11849993 0.970199979,1.45529997 0.485099989,0.277199994 L0.138599997,0.970199979 C-0.138599997,1.45529997 1.66319996,3.32639993 5.12819989,5.26679988 C7.41509984,6.51419986 9.63269979,7.27649984 10.8107998,7.27649984 C10.9493998,7.27649984 11.0879998,7.27649984 11.1572998,7.20719984 C11.2958998,7.13789984 11.3651998,7.13789984 11.4344998,7.06859985 L11.7809997,6.37559986 C10.7414998,6.58349986 8.17739982,5.75189987 5.61329988,4.3658999 Z"></path>
                        </g>
                        <path d="M5.95979987,5.05889989 C8.24669982,6.30629986 10.4642998,7.06859985 11.6423997,7.06859985 C11.9888997,7.06859985 12.1967997,6.99929985 12.2660997,6.86069985 C12.4046997,6.65279985 12.1274997,6.09839987 11.0879998,5.19749989 C10.1177998,4.3658999 8.73179981,3.46499992 7.20719984,2.63339994 C4.92029989,1.38599997 2.70269994,0.623699986 1.52459997,0.623699986 C1.17809997,0.623699986 0.970199979,0.692999985 0.90089998,0.831599982 C0.692999985,1.31669997 2.42549995,3.18779993 5.95979987,5.05889989 Z"></path>
                    </g>
                </g>
            </g>
        </g>
    </g>
</svg>